<svg xmlns="http://www.w3.org/2000/svg" width="960" height="520" viewBox="0 0 960 520">
  <rect width="960" height="520" fill="white"/>
  <style>text{font-family:Arial,Helvetica,sans-serif;fill:#222}.title{font-size:28px;font-weight:700}.sub{font-size:15px;fill:#555}.lab{font-size:16px}.val{font-size:20px;font-weight:700}.note{font-size:14px;fill:#555}.grid{stroke:#ddd;stroke-width:1}</style>
  <text x="480" y="42" text-anchor="middle" class="title">Locked-Holdout Validation</text>
  <text x="480" y="68" text-anchor="middle" class="sub">16 independent deployment-domain samples</text>
  <line x1="110" y1="410" x2="875" y2="410" stroke="#555"/>
  <line x1="110" y1="120" x2="110" y2="410" stroke="#555"/>
  <line x1="110" y1="337.5" x2="875" y2="337.5" class="grid"/><text x="98" y="342" text-anchor="end" font-size="12">25%</text>
  <line x1="110" y1="265" x2="875" y2="265" class="grid"/><text x="98" y="270" text-anchor="end" font-size="12">50%</text>
  <line x1="110" y1="192.5" x2="875" y2="192.5" class="grid"/><text x="98" y="197" text-anchor="end" font-size="12">75%</text>
  <line x1="110" y1="120" x2="875" y2="120" class="grid"/><text x="98" y="125" text-anchor="end" font-size="12">100%</text>
  <rect x="180" y="301.25" width="105" height="108.75" fill="#999"/><text x="232" y="293" text-anchor="middle" class="val">37.5%</text><text x="232" y="444" text-anchor="middle" class="lab">Baseline OA</text>
  <rect x="340" y="156.25" width="105" height="253.75" fill="#d73027"/><text x="392" y="148" text-anchor="middle" class="val">87.5%</text><text x="392" y="444" text-anchor="middle" class="lab">Final OA</text>
  <rect x="500" y="141.5" width="105" height="268.5" fill="#2c7fb8"/><text x="552" y="133" text-anchor="middle" class="val">92.59%</text><text x="552" y="444" text-anchor="middle" class="lab">Balanced Acc.</text>
  <rect x="660" y="179.9" width="105" height="230.1" fill="#4daf4a"/><text x="712" y="171" text-anchor="middle" class="val">79.35%</text><text x="712" y="444" text-anchor="middle" class="lab">Kappa</text>
  <text x="480" y="486" text-anchor="middle" class="note">Final model: 14/16 correct · 8 corrected cases · 0 regressions · Macro F1 = 0.6354</text>
</svg>
